<?xml version="1.0" encoding="utf-8"?>
<!-- Generator: Adobe Illustrator 24.1.2, SVG Export Plug-In . SVG Version: 6.00 Build 0)  -->
<svg version="1.1" baseProfile="tiny" id="Layer_1" xmlns="http://www.w3.org/2000/svg" xmlns:xlink="http://www.w3.org/1999/xlink"
	 x="0px" y="0px" viewBox="0 0 399.7 82.2" overflow="visible" xml:space="preserve">
<g>
	<g>
		<g>
			<path fill="#17694F" d="M127,50.8V34c0-2.1-0.3-3.7-0.9-4.7c-0.6-1-1.5-1.6-2.7-1.6c-1.6,0-2.8,0.7-3.6,2.1
				c-0.8,1.4-1.1,3.6-1.1,6.6v14.4h-10.7V34c0-2.1-0.3-3.7-0.8-4.7c-0.5-1-1.4-1.6-2.6-1.6c-1.7,0-2.9,0.7-3.7,2.2
				c-0.8,1.5-1.1,3.9-1.1,7.3v13.5H89V19.9H97l1.3,3.8H99c0.8-1.4,2-2.5,3.6-3.2c1.6-0.7,3.3-1.1,5.3-1.1c4.5,0,7.6,1.4,9.4,4.1h0.8
				c0.9-1.3,2.1-2.3,3.6-3c1.6-0.7,3.3-1.1,5.1-1.1c3.7,0,6.4,0.9,8.1,2.8c1.7,1.9,2.6,4.7,2.6,8.5v20.1H127z"/>
			<path fill="#17694F" d="M171.6,35.3c0,5.1-1.4,9-4.1,11.8c-2.7,2.8-6.5,4.2-11.4,4.2c-4.7,0-8.4-1.4-11.2-4.3
				c-2.8-2.9-4.2-6.8-4.2-11.7c0-5,1.4-9,4.1-11.8c2.7-2.8,6.5-4.2,11.5-4.2c3,0,5.7,0.6,8.1,1.9s4.1,3.1,5.4,5.6
				S171.6,32.1,171.6,35.3z M151.6,35.3c0,2.7,0.4,4.7,1.1,6.1s1.9,2.1,3.6,2.1c1.7,0,2.8-0.7,3.5-2.1s1-3.4,1-6.1
				c0-2.6-0.3-4.6-1-6c-0.7-1.3-1.9-2-3.5-2c-1.6,0-2.8,0.7-3.5,2S151.6,32.6,151.6,35.3z"/>
			<path fill="#17694F" d="M194.5,50.8V34c0-2.1-0.3-3.6-0.9-4.7c-0.6-1-1.5-1.6-2.9-1.6c-1.8,0-3.1,0.7-3.9,2.2
				c-0.8,1.4-1.2,3.9-1.2,7.4v13.5h-10.7V19.9h8.1l1.3,3.8h0.6c0.9-1.5,2.2-2.5,3.8-3.3c1.6-0.7,3.5-1.1,5.6-1.1c3.4,0,6.1,1,8,3
				c1.9,2,2.9,4.8,2.9,8.4v20.1H194.5z"/>
			<path fill="#17694F" d="M224.5,51.4c-5.2,0-9.2-1.4-12-4.1c-2.8-2.7-4.3-6.6-4.3-11.7c0-5.2,1.3-9.2,4-12
				c2.6-2.8,6.4-4.2,11.3-4.2c4.7,0,8.3,1.2,10.8,3.6c2.5,2.4,3.8,5.9,3.8,10.5v4.8h-19.1c0.1,1.7,0.7,3.1,1.9,4.1
				c1.2,1,2.8,1.5,4.9,1.5c1.9,0,3.6-0.2,5.2-0.5c1.6-0.4,3.3-1,5.1-1.8v7.7c-1.7,0.9-3.4,1.4-5.2,1.8
				C229.1,51.2,227,51.4,224.5,51.4z M223.9,26.6c-1.3,0-2.3,0.4-3.2,1.2s-1.3,2-1.5,3.7h9.2c0-1.5-0.5-2.7-1.3-3.6
				C226.4,27.1,225.3,26.6,223.9,26.6z"/>
			<path fill="#17694F" d="M237.6,19.9h11.3l5.2,17.7c0.3,0.9,0.4,2,0.5,3.4h0.2c0.1-1.3,0.4-2.4,0.7-3.3l5.4-17.8h10.9l-12.2,32.9
				c-1.6,4.2-3.5,7.1-5.8,8.9c-2.3,1.7-5.3,2.6-8.9,2.6c-1.4,0-2.9-0.2-4.4-0.5v-8.4c1,0.2,2.1,0.3,3.3,0.3c0.9,0,1.8-0.2,2.5-0.5
				c0.7-0.4,1.3-0.9,1.9-1.5c0.5-0.7,1.1-1.8,1.7-3.3L237.6,19.9z"/>
			<path fill="#17694F" d="M298.5,51.4c-5.1,0-8.9-1.4-11.5-4.1s-3.9-6.7-3.9-11.8c0-5.1,1.4-9.1,4.2-11.9c2.8-2.8,6.8-4.2,12-4.2
				c3.6,0,7,0.8,10.1,2.3l-3.1,7.9c-1.3-0.6-2.5-1-3.6-1.4c-1.1-0.3-2.2-0.5-3.4-0.5c-1.7,0-3.1,0.7-4,2c-0.9,1.3-1.4,3.2-1.4,5.7
				c0,5,1.8,7.4,5.5,7.4c3.1,0,6.1-0.9,9-2.7v8.5C305.7,50.5,302.4,51.4,298.5,51.4z"/>
			<path fill="#17694F" d="M332,50.8l-2-4.1h-0.2c-1.4,1.8-2.9,3-4.4,3.7s-3.4,1-5.8,1c-2.9,0-5.2-0.9-6.9-2.6
				c-1.7-1.7-2.5-4.2-2.5-7.4c0-3.3,1.1-5.7,3.4-7.4c2.3-1.6,5.6-2.5,10-2.7l5.2-0.2v-0.4c0-2.5-1.3-3.8-3.8-3.8
				c-2.3,0-5.1,0.8-8.6,2.3l-3.1-7c3.6-1.9,8.2-2.8,13.7-2.8c4,0,7,1,9.2,2.9c2.2,2,3.3,4.7,3.3,8.2v20.3H332z M324,43.8
				c1.3,0,2.4-0.4,3.3-1.2s1.4-1.9,1.4-3.2V37l-2.5,0.1c-3.5,0.1-5.3,1.4-5.3,3.9C321,42.9,322,43.8,324,43.8z"/>
			<path fill="#17694F" d="M362.5,19.3c0.9,0,1.8,0.1,2.6,0.2l0.6,0.1l-1,10.1c-0.9-0.2-2.1-0.3-3.6-0.3c-2.3,0-4,0.5-5.1,1.6
				c-1.1,1.1-1.6,2.6-1.6,4.6v15.2h-10.7V19.9h7.9l1.7,4.9h0.5c0.9-1.6,2.1-3,3.7-4C359.3,19.8,360.9,19.3,362.5,19.3z"/>
			<path fill="#17694F" d="M382.2,51.4c-5.2,0-9.2-1.4-12-4.1c-2.8-2.7-4.3-6.6-4.3-11.7c0-5.2,1.3-9.2,4-12
				c2.6-2.8,6.4-4.2,11.3-4.2c4.7,0,8.3,1.2,10.8,3.6c2.5,2.4,3.8,5.9,3.8,10.5v4.8h-19.1c0.1,1.7,0.7,3.1,1.9,4.1
				c1.2,1,2.8,1.5,4.9,1.5c1.9,0,3.6-0.2,5.2-0.5c1.6-0.4,3.3-1,5.1-1.8v7.7c-1.7,0.9-3.4,1.4-5.2,1.8
				C386.8,51.2,384.7,51.4,382.2,51.4z M381.6,26.6c-1.3,0-2.3,0.4-3.2,1.2c-0.8,0.8-1.3,2-1.5,3.7h9.2c0-1.5-0.5-2.7-1.3-3.6
				C384,27.1,382.9,26.6,381.6,26.6z"/>
		</g>
		<g>
			<path fill="#17694F" d="M273.1,75.2l-1.3-3.4h-4.3l-1.3,3.4h-1.3l4.2-10.8h1l4.2,10.8H273.1z M271.4,70.7l-1.2-3.3
				c-0.2-0.4-0.3-0.9-0.5-1.5c-0.1,0.5-0.3,1-0.5,1.5l-1.3,3.3H271.4z"/>
			<path fill="#17694F" d="M283.4,65.5c-1.2,0-2.1,0.4-2.8,1.2c-0.7,0.8-1,1.9-1,3.2c0,1.4,0.3,2.5,1,3.2c0.7,0.8,1.6,1.1,2.8,1.1
				c0.7,0,1.6-0.1,2.6-0.4V75c-0.7,0.3-1.7,0.4-2.7,0.4c-1.6,0-2.8-0.5-3.7-1.4c-0.9-1-1.3-2.3-1.3-4.1c0-1.1,0.2-2.1,0.6-2.9
				c0.4-0.8,1-1.5,1.8-1.9c0.8-0.4,1.7-0.7,2.8-0.7c1.1,0,2.1,0.2,2.9,0.6l-0.5,1.1C285.1,65.7,284.2,65.5,283.4,65.5z"/>
			<path fill="#17694F" d="M295.9,65.5c-1.2,0-2.1,0.4-2.8,1.2c-0.7,0.8-1,1.9-1,3.2c0,1.4,0.3,2.5,1,3.2c0.7,0.8,1.6,1.1,2.8,1.1
				c0.7,0,1.6-0.1,2.6-0.4V75c-0.7,0.3-1.7,0.4-2.7,0.4c-1.6,0-2.8-0.5-3.7-1.4c-0.9-1-1.3-2.3-1.3-4.1c0-1.1,0.2-2.1,0.6-2.9
				c0.4-0.8,1-1.5,1.8-1.9c0.8-0.4,1.7-0.7,2.8-0.7c1.1,0,2.1,0.2,2.9,0.6l-0.5,1.1C297.5,65.7,296.7,65.5,295.9,65.5z"/>
			<path fill="#17694F" d="M313.1,69.9c0,1.7-0.4,3.1-1.3,4c-0.9,1-2.1,1.5-3.6,1.5c-1.6,0-2.8-0.5-3.7-1.4c-0.9-1-1.3-2.3-1.3-4.1
				c0-1.7,0.4-3.1,1.3-4.1c0.9-1,2.1-1.4,3.7-1.4c1.5,0,2.7,0.5,3.6,1.5C312.6,66.8,313.1,68.2,313.1,69.9z M304.5,69.9
				c0,1.5,0.3,2.6,0.9,3.3c0.6,0.8,1.5,1.1,2.7,1.1c1.2,0,2.1-0.4,2.7-1.1s0.9-1.8,0.9-3.3c0-1.4-0.3-2.5-0.9-3.3
				c-0.6-0.7-1.5-1.1-2.7-1.1c-1.2,0-2.1,0.4-2.7,1.1C304.8,67.3,304.5,68.4,304.5,69.9z"/>
			<path fill="#17694F" d="M326.5,64.5v6.9c0,1.2-0.4,2.2-1.1,2.9s-1.8,1-3,1s-2.3-0.4-3-1.1c-0.7-0.7-1.1-1.7-1.1-2.9v-6.9h1.2v7
				c0,0.9,0.2,1.6,0.7,2.1s1.2,0.7,2.2,0.7c0.9,0,1.6-0.2,2.1-0.7c0.5-0.5,0.7-1.2,0.7-2.1v-7H326.5z"/>
			<path fill="#17694F" d="M340.7,75.2h-1.4l-5.9-9h-0.1c0.1,1.1,0.1,2,0.1,2.9v6.1h-1.1V64.5h1.4l5.8,9h0.1c0-0.1,0-0.6-0.1-1.3
				c0-0.7,0-1.2,0-1.5v-6.1h1.2V75.2z"/>
			<path fill="#17694F" d="M350,75.2h-1.2v-9.6h-3.4v-1.1h8v1.1H350V75.2z"/>
			<path fill="#17694F" d="M358,75.2V64.5h1.2v10.7H358z"/>
			<path fill="#17694F" d="M373.5,75.2h-1.4l-5.9-9h-0.1c0.1,1.1,0.1,2,0.1,2.9v6.1h-1.1V64.5h1.4l5.8,9h0.1c0-0.1,0-0.6-0.1-1.3
				c0-0.7,0-1.2,0-1.5v-6.1h1.2V75.2z"/>
			<path fill="#17694F" d="M384.2,69.6h3.6v5.2c-0.6,0.2-1.1,0.3-1.7,0.4c-0.6,0.1-1.3,0.1-2,0.1c-1.6,0-2.9-0.5-3.8-1.4
				c-0.9-1-1.4-2.3-1.4-4.1c0-1.1,0.2-2.1,0.7-2.9c0.4-0.8,1.1-1.5,1.9-1.9c0.8-0.4,1.8-0.7,3-0.7c1.1,0,2.2,0.2,3.2,0.6l-0.5,1.1
				c-1-0.4-1.9-0.6-2.8-0.6c-1.3,0-2.3,0.4-3.1,1.2s-1.1,1.9-1.1,3.2c0,1.4,0.4,2.5,1.1,3.3c0.7,0.7,1.7,1.1,3.1,1.1
				c0.7,0,1.5-0.1,2.2-0.3v-3.3h-2.4V69.6z"/>
		</g>
	</g>
	<g>
		<g>
			<circle fill="#17694F" cx="42.1" cy="41.1" r="37.3"/>
		</g>
		<g>
			<path fill="#39AF79" d="M25.3,74.4c13-23.3,4.8-39.2,4.8-39.2c-9.8,0.7-17.4,7.5-17.4,7.5c12.4,11.4,7.8,28.9,7.8,28.9
				S24,73.9,25.3,74.4z"/>
			<path fill="#17694F" d="M25.8,75.5L25,75.3c-1.4-0.5-4.6-2.7-5-3l-0.5-0.4l0.2-0.6c0-0.2,4.3-17.1-7.5-28l-0.8-0.7l0.8-0.7
				c0.3-0.3,7.9-7,17.9-7.7l0.6,0l0.3,0.6c0.3,0.7,8.3,16.6-4.8,40.1L25.8,75.5z M21.6,71.1c0.9,0.6,2.3,1.5,3.3,2.1
				c10.8-19.8,5.9-34.1,4.6-37c-7.3,0.7-13.3,4.9-15.4,6.5C24.6,53,22.3,67.8,21.6,71.1z"/>
		</g>
		<g>
			<path fill="#6AC39B" d="M51,25.8c-11.5-3.4-22.8,1.4-22.8,1.4c9.4,31.3-2.8,47.2-2.8,47.2s7.3,4,18.2,4
				C43.6,78.4,59.9,39.9,51,25.8z"/>
			<path fill="#17694F" d="M44.2,79.3h-0.6c-11,0-18.4-3.9-18.7-4.1l-1-0.5l0.7-0.9c0.1-0.2,11.9-15.9,2.7-46.3L27,26.6l0.8-0.3
				c0.5-0.2,11.8-4.8,23.4-1.4l0.3,0.1l0.2,0.3c9.1,14.3-6.7,51.8-7.3,53.4L44.2,79.3z M26.7,74c2.2,1,8.2,3.3,16.2,3.4
				c2-4.8,15-38,7.4-50.8c-9.2-2.6-18.3,0.2-21,1.1C37.2,54.7,29.2,70.1,26.7,74z"/>
		</g>
		<g>
			<path fill="#C3DFA1" d="M76.8,27.5C66.4,14.3,49,15.8,49,15.8C58.5,62,29.7,76.2,29.7,76.2s17.4,6.6,32.4-3.7
				C62.1,72.6,87.3,56.5,76.8,27.5z"/>
			<path fill="#17694F" d="M42.6,79.3c-7.4,0-12.9-2-13.3-2.2l-2-0.8l1.9-1c0.1,0,7.1-3.6,12.9-12.7c5.4-8.4,10.8-23.3,6-46.8
				l-0.2-1l1.1-0.1c0.7-0.1,18-1.4,28.6,12.1l0.1,0.1l0.1,0.1c5.6,15.3,1.2,27.1-3.5,34.2c-5,7.7-11.3,11.8-11.6,11.9
				C55.8,78,48.6,79.3,42.6,79.3z M32,76c4.9,1.3,18,3.7,29.5-4.2c0.1-0.1,6.3-4,11.1-11.5c6.4-9.8,7.5-20.7,3.3-32.4
				C67.5,17.3,54,16.6,50.2,16.7c4.6,23.5-1,38.6-6.5,47.2C39.4,70.5,34.6,74.2,32,76z"/>
		</g>
		<g>
			<path fill="#17694F" d="M42.1,79.3C21,79.3,3.9,62.2,3.9,41.1C3.9,20,21,2.9,42.1,2.9S80.3,20,80.3,41.1
				C80.3,62.2,63.1,79.3,42.1,79.3z M42.1,4.8c-20,0-36.3,16.3-36.3,36.3c0,20,16.3,36.3,36.3,36.3c20,0,36.3-16.3,36.3-36.3
				C78.4,21.1,62.1,4.8,42.1,4.8z"/>
		</g>
		<g>
			<g>
				<path fill="#17694F" d="M35.2,78.2l-1-1.6c2.4-1.6,5-4.1,7.5-7.2l1.5,1.2C40.4,73.9,37.8,76.4,35.2,78.2z"/>
			</g>
			<g>
				<path fill="#17694F" d="M43.1,70.6l-1.5-1.2c1.2-1.5,2.4-3.1,3.4-4.7c4.7-7.2,9.9-19.9,8.1-39L53,24.8l0.9-0.1
					c2.3-0.4,4-1.9,4.5-4l0.2-1l1,0.3c8.6,2.7,15.4,7.6,20.1,14.6l-1.6,1c-4.3-6.4-10.4-11-18.2-13.6c-0.8,2.1-2.5,3.7-4.9,4.3
					c1.6,19.2-3.7,32-8.4,39.4C45.5,67.4,44.3,69.1,43.1,70.6z"/>
			</g>
		</g>
		<g>
			<path fill="#17694F" d="M63.1,72.6c-1,0-2-0.2-3-0.5l0.6-1.8c0.9,0.3,1.8,0.4,2.7,0.4l0.1,1.9C63.3,72.6,63.2,72.6,63.1,72.6z"/>
		</g>
		<g>
			<path fill="#17694F" d="M60,72.1c-0.5-0.2-0.9-0.4-1.4-0.6c-5.3-2.7-7-9.9-3.8-16.1c1.5-2.9,3.9-5.2,6.8-6.4
				c2.9-1.2,5.9-1.1,8.5,0.2c3.3,1.7,5.3,5.2,5.4,9.4l-1.9,0c0-3.5-1.7-6.4-4.4-7.8c-2.1-1.1-4.5-1.1-6.9-0.2c-2.4,1-4.5,3-5.8,5.5
				c-2.7,5.2-1.4,11.3,3,13.5c0.4,0.2,0.7,0.3,1.1,0.5L60,72.1z"/>
		</g>
		<g>
			<path fill="#17694F" d="M29.4,76.1l-1.7-0.9C32.3,67,37,54.9,32.5,34l-0.2-0.9l0.8-0.2c1.8-0.5,3.1-2.2,3.1-4.1
				c0-0.1,0-0.1,0-0.2l-0.1-1l0.9-0.1c1.7-0.2,3.4-0.4,5.1-0.4c2.4,0,6.8,0.7,8.8,1.2l-0.4,1.8c-2-0.5-6.2-1.1-8.4-1.1
				c-1.3,0-2.6,0.1-4,0.2c-0.2,2.2-1.6,4.2-3.6,5.1C38.8,55.4,34,67.7,29.4,76.1z"/>
		</g>
		<g>
			<path fill="#17694F" d="M24.5,73.4L22.6,73c2.3-11,1.1-19.8-3.7-27.1l-0.5-0.7l0.7-0.5c0.5-0.4,0.8-0.9,0.8-1.6
				c0-0.3-0.1-0.7-0.3-1l-0.5-0.9l0.9-0.5c2.4-1.2,6.5-2.9,10.6-3.4l0.2,1.9c-3.4,0.4-6.9,1.7-9.2,2.8c0.1,0.3,0.1,0.7,0.1,1
				c0,0.9-0.3,1.8-0.9,2.5C25.7,53.1,26.9,62.2,24.5,73.4z"/>
		</g>
	</g>
</g>
<g>
</g>
<g>
</g>
<g>
</g>
<g>
</g>
<g>
</g>
<g>
</g>
</svg>
